<?xml version="1.0" encoding="UTF-8"?>
<svg xmlns="http://www.w3.org/2000/svg" xmlns:xlink="http://www.w3.org/1999/xlink" viewBox="0 0 24 24" width="24px" height="24px">
<g id="surface82141887">
<path style=" stroke:none;fill-rule:nonzero;fill:rgb(100%,100%,100%);fill-opacity:1;" d="M 17.238281 8.429688 L 14.378906 8.429688 L 14.378906 6.050781 C 14.378906 4.820312 14.480469 4.046875 16.238281 4.046875 L 17.273438 4.046875 C 17.929688 4.046875 18.464844 3.515625 18.464844 2.859375 L 18.464844 1.367188 C 18.464844 0.742188 17.984375 0.210938 17.363281 0.171875 C 16.644531 0.121094 15.925781 0.0976562 15.203125 0.101562 C 11.976562 0.101562 9.621094 2.070312 9.621094 5.691406 L 9.621094 8.429688 L 7.238281 8.429688 C 6.582031 8.429688 6.050781 8.964844 6.050781 9.621094 L 6.050781 12 C 6.050781 12.65625 6.582031 13.191406 7.238281 13.191406 L 9.621094 13.1875 L 9.621094 22.710938 C 9.621094 23.367188 10.152344 23.898438 10.808594 23.898438 L 13.191406 23.898438 C 13.847656 23.898438 14.378906 23.367188 14.378906 22.710938 L 14.378906 13.1875 L 16.96875 13.183594 C 17.570312 13.183594 18.078125 12.730469 18.148438 12.132812 L 18.421875 9.753906 C 18.503906 9.050781 17.953125 8.429688 17.238281 8.429688 Z M 17.238281 8.429688 "/>
</g>
</svg>
