<?xml version="1.0" encoding="UTF-8"?>
<svg xmlns="http://www.w3.org/2000/svg" xmlns:xlink="http://www.w3.org/1999/xlink" viewBox="0 0 16 16" width="16px" height="16px">
<g id="surface82255333">
<path style=" stroke:none;fill-rule:nonzero;fill:rgb(100%,100%,100%);fill-opacity:1;" d="M 15.839844 2.734375 C 15.253906 2.984375 14.664062 3.175781 14.011719 3.234375 C 14.664062 2.859375 15.1875 2.226562 15.445312 1.535156 C 14.792969 1.910156 14.140625 2.164062 13.425781 2.289062 C 12.769531 1.660156 11.921875 1.28125 11.003906 1.28125 C 9.242188 1.28125 7.804688 2.671875 7.804688 4.378906 C 7.804688 4.625 7.804688 4.878906 7.867188 5.074219 C 4.5 5.074219 2.191406 3.175781 0.625 1.28125 C 0.296875 1.722656 0.164062 2.289062 0.164062 2.859375 C 0.164062 3.929688 0.753906 4.878906 1.605469 5.449219 C 1.078125 5.386719 0.558594 5.261719 0.164062 5.074219 C 0.164062 5.074219 0.164062 5.074219 0.164062 5.132812 C 0.164062 6.652344 1.277344 7.914062 2.714844 8.167969 C 2.453125 8.226562 2.191406 8.292969 1.863281 8.292969 C 1.667969 8.292969 1.472656 8.292969 1.277344 8.230469 C 1.667969 9.496094 3.492188 10.949219 4.929688 10.949219 C 3.816406 11.765625 2.785156 12.480469 0.71875 12.480469 C 0.457031 12.480469 0.667969 12.480469 0.160156 12.480469 C 1.59375 13.363281 3.296875 13.601562 5.058594 13.601562 C 11.003906 13.601562 14.207031 8.863281 14.207031 4.753906 C 14.207031 4.625 14.207031 4.503906 14.207031 4.378906 C 14.859375 3.929688 15.386719 3.367188 15.839844 2.734375 "/>
</g>
</svg>
