<?xml version="1.0" encoding="UTF-8"?>
<svg xmlns="http://www.w3.org/2000/svg" xmlns:xlink="http://www.w3.org/1999/xlink" viewBox="0 0 32 32" width="32px" height="32px">
<g id="surface82170108">
<path style=" stroke:none;fill-rule:nonzero;fill:rgb(100%,100%,100%);fill-opacity:1;" d="M 15.636719 1.480469 C 13.335938 1.480469 7.652344 1.722656 4.625 4.625 C 2.449219 6.683594 1.601562 9.828125 1.480469 13.578125 C 1.238281 19.507812 2.566406 23.257812 4.746094 25.195312 C 5.230469 25.558594 6.441406 26.527344 8.738281 27.253906 L 8.738281 30.277344 C 8.738281 30.277344 8.738281 31.488281 9.464844 31.730469 C 9.585938 31.730469 9.707031 31.851562 9.828125 31.851562 C 10.554688 31.851562 11.160156 31.003906 12.007812 30.15625 C 12.730469 29.308594 13.335938 28.703125 13.699219 28.101562 L 16.363281 28.101562 C 18.664062 28.101562 24.347656 27.859375 27.375 24.953125 C 29.550781 22.777344 30.398438 19.628906 30.398438 15.636719 C 30.519531 15.03125 30.519531 14.304688 30.519531 13.578125 C 30.398438 9.101562 29.070312 6.078125 27.253906 4.382812 C 26.527344 3.78125 23.382812 1.480469 16.605469 1.480469 Z M 15.394531 3.78125 L 16.484375 3.78125 C 22.898438 3.78125 25.316406 5.835938 25.558594 6.078125 C 27.011719 7.289062 27.859375 9.949219 27.980469 13.460938 L 27.980469 13.945312 C 28.101562 14.671875 28.101562 15.273438 28.101562 15.636719 C 27.980469 19.265625 27.253906 21.6875 25.800781 23.261719 C 23.257812 25.558594 17.9375 25.679688 16.484375 25.679688 L 14.183594 25.679688 L 12.25 27.859375 L 11.039062 29.191406 L 10.796875 29.550781 C 10.554688 29.792969 10.191406 30.277344 9.949219 30.398438 L 9.949219 24.953125 C 7.53125 24.347656 6.5625 23.503906 6.320312 23.261719 C 4.625 21.808594 3.65625 18.300781 3.898438 13.578125 L 3.898438 12.371094 C 4.140625 9.464844 4.867188 7.53125 6.078125 6.199219 C 8.621094 3.902344 13.941406 3.78125 15.394531 3.78125 Z M 15.273438 6.441406 C 14.667969 6.441406 14.667969 7.289062 15.273438 7.289062 C 19.75 7.289062 23.625 10.3125 23.625 16 C 23.625 16.605469 24.46875 16.605469 24.46875 16 C 24.46875 9.828125 20.355469 6.320312 15.273438 6.441406 Z M 10.480469 7.5625 C 10.222656 7.53125 9.949219 7.589844 9.707031 7.769531 C 8.5 8.375 7.289062 9.589844 7.652344 10.917969 C 7.652344 10.917969 7.894531 12.007812 9.222656 14.304688 C 9.949219 15.394531 10.554688 16.363281 11.160156 17.089844 C 11.765625 17.9375 12.734375 18.902344 13.699219 19.628906 C 15.636719 21.203125 18.664062 22.777344 19.992188 23.140625 C 21.203125 23.503906 22.535156 22.292969 23.140625 21.082031 C 23.382812 20.597656 23.257812 19.992188 22.777344 19.628906 C 22.050781 18.902344 20.839844 18.058594 19.992188 17.574219 C 19.390625 17.210938 18.660156 17.453125 18.421875 17.816406 L 17.816406 18.539062 C 17.574219 18.902344 16.96875 18.90625 16.96875 18.90625 C 12.976562 17.816406 11.886719 13.699219 11.886719 13.699219 C 11.886719 13.699219 11.886719 13.21875 12.25 12.855469 L 12.976562 12.25 C 13.339844 12.007812 13.578125 11.28125 13.214844 10.675781 C 12.972656 10.3125 12.613281 9.585938 12.25 9.222656 C 11.886719 8.742188 11.160156 7.894531 11.160156 7.894531 C 10.976562 7.710938 10.738281 7.589844 10.480469 7.5625 Z M 16.121094 8.859375 C 15.515625 8.738281 15.394531 9.707031 16 9.707031 C 19.386719 9.949219 21.324219 12.25 21.203125 15.152344 C 21.082031 15.757812 22.050781 15.757812 22.050781 15.152344 C 22.171875 11.765625 19.992188 8.980469 16.121094 8.859375 Z M 16.484375 11.160156 C 15.878906 11.039062 15.878906 12.007812 16.484375 12.007812 C 17.9375 12.007812 18.660156 12.855469 18.660156 14.304688 C 18.78125 14.910156 19.628906 14.910156 19.628906 14.304688 C 19.507812 12.371094 18.421875 11.160156 16.484375 11.160156 Z M 16.484375 11.160156 "/>
</g>
</svg>
