<?xml version="1.0" encoding="UTF-8"?>
<svg xmlns="http://www.w3.org/2000/svg" xmlns:xlink="http://www.w3.org/1999/xlink" viewBox="0 0 24 24" width="24px" height="24px">
<g id="surface82181656">
<path style=" stroke:none;fill-rule:nonzero;fill:rgb(100%,100%,100%);fill-opacity:1;" d="M 23.5 5.023438 C 23.222656 3.992188 22.410156 3.175781 21.375 2.902344 C 19.503906 2.398438 12 2.398438 12 2.398438 C 12 2.398438 4.496094 2.398438 2.625 2.902344 C 1.589844 3.175781 0.777344 3.992188 0.5 5.023438 C 0 6.894531 0 12 0 12 C 0 12 0 17.105469 0.5 18.976562 C 0.777344 20.007812 1.589844 20.824219 2.625 21.097656 C 4.496094 21.601562 12 21.601562 12 21.601562 C 12 21.601562 19.503906 21.601562 21.375 21.097656 C 22.410156 20.824219 23.222656 20.007812 23.5 18.976562 C 24 17.105469 24 12 24 12 C 24 12 24 6.894531 23.5 5.023438 Z M 9.601562 16.15625 L 9.601562 7.84375 L 16.800781 12 Z M 9.601562 16.15625 "/>
</g>
</svg>
