<?xml version="1.0" encoding="UTF-8"?>
<svg xmlns="http://www.w3.org/2000/svg" xmlns:xlink="http://www.w3.org/1999/xlink" viewBox="0 0 26 26" width="26px" height="26px">
<g id="surface18880931">
<path style=" stroke:none;fill-rule:nonzero;fill:rgb(82.352942%,82.352942%,82.352942%);fill-opacity:1;" d="M 24.355469 21.632812 L 21.628906 24.355469 C 21.128906 24.855469 20.316406 24.855469 19.816406 24.355469 L 13 17.546875 L 6.191406 24.355469 C 5.6875 24.855469 4.871094 24.855469 4.371094 24.355469 L 1.644531 21.632812 C 1.144531 21.128906 1.144531 20.316406 1.644531 19.816406 L 8.453125 13 L 1.644531 6.191406 C 1.148438 5.683594 1.148438 4.863281 1.644531 4.371094 L 4.371094 1.644531 C 4.871094 1.144531 5.6875 1.144531 6.191406 1.644531 L 13 8.460938 L 19.816406 1.644531 C 20.316406 1.144531 21.136719 1.144531 21.628906 1.644531 L 24.355469 4.367188 C 24.855469 4.871094 24.855469 5.6875 24.359375 6.191406 L 17.542969 13 L 24.355469 19.816406 C 24.855469 20.316406 24.855469 21.128906 24.355469 21.632812 Z M 24.355469 21.632812 "/>
</g>
</svg>
