<?xml version="1.0" encoding="UTF-8"?>
<svg xmlns="http://www.w3.org/2000/svg" xmlns:xlink="http://www.w3.org/1999/xlink" viewBox="0 0 48 48" width="48px" height="48px">
<g id="surface82577144">
<path style=" stroke:none;fill-rule:nonzero;fill:rgb(100%,100%,100%);fill-opacity:1;" d="M 3.851562 0.601562 C 2.078125 0.601562 0.601562 2.078125 0.601562 3.851562 L 0.601562 19.449219 C 0.601562 21.222656 2.078125 22.699219 3.851562 22.699219 L 19.449219 22.699219 C 21.222656 22.699219 22.699219 21.222656 22.699219 19.449219 L 22.699219 3.851562 C 22.699219 2.078125 21.222656 0.601562 19.449219 0.601562 Z M 28.550781 0.601562 C 26.777344 0.601562 25.300781 2.078125 25.300781 3.851562 L 25.300781 19.449219 C 25.300781 21.222656 26.777344 22.699219 28.550781 22.699219 L 44.148438 22.699219 C 45.921875 22.699219 47.398438 21.222656 47.398438 19.449219 L 47.398438 3.851562 C 47.398438 2.078125 45.921875 0.601562 44.148438 0.601562 Z M 4.5 4.5 L 18.800781 4.5 L 18.800781 18.800781 L 4.5 18.800781 Z M 29.199219 4.5 L 43.5 4.5 L 43.5 18.800781 L 29.199219 18.800781 Z M 3.851562 25.300781 C 2.078125 25.300781 0.601562 26.777344 0.601562 28.550781 L 0.601562 44.148438 C 0.601562 45.921875 2.078125 47.398438 3.851562 47.398438 L 19.449219 47.398438 C 21.222656 47.398438 22.699219 45.921875 22.699219 44.148438 L 22.699219 28.550781 C 22.699219 26.777344 21.222656 25.300781 19.449219 25.300781 Z M 28.550781 25.300781 C 26.777344 25.300781 25.300781 26.777344 25.300781 28.550781 L 25.300781 44.148438 C 25.300781 45.921875 26.777344 47.398438 28.550781 47.398438 L 44.148438 47.398438 C 45.921875 47.398438 47.398438 45.921875 47.398438 44.148438 L 47.398438 28.550781 C 47.398438 26.777344 45.921875 25.300781 44.148438 25.300781 Z M 4.5 29.199219 L 18.800781 29.199219 L 18.800781 43.5 L 4.5 43.5 Z M 29.199219 29.199219 L 43.5 29.199219 L 43.5 43.5 L 29.199219 43.5 Z M 29.199219 29.199219 "/>
</g>
</svg>
